<svg width="1920" height="1550" viewBox="0 0 1920 1550" fill="none" xmlns="http://www.w3.org/2000/svg">
<path d="M1566.32 500.791L1565.42 500.36L1566.32 500.791L1758.01 100.393C1772.32 70.5094 1811.82 55.0787 1853.98 54.7294C1896.1 54.3806 1940.33 69.1031 1963.78 98.8627L1964.57 98.2438L1963.78 98.8629L2434.86 696.352C2446.57 711.21 2450.15 726.041 2447.56 739.544C2444.97 753.071 2436.18 765.422 2422.85 775.227C2396.19 794.846 2351.6 804.097 2303.73 792.015L1670.25 632.052C1670.25 632.052 1670.25 632.052 1670.25 632.052C1629 621.629 1596.8 601.647 1578.04 577.852C1559.3 554.079 1553.98 526.549 1566.32 500.791Z" stroke="url(#paint0_linear_2043_3)" stroke-width="2"/>
<path d="M2015.78 1360.8L2015.78 1360.8L1641.05 1543.9L1641.49 1544.8L1641.05 1543.9C1622.54 1552.95 1604.3 1549.2 1592.66 1538.62C1581.03 1528.04 1575.9 1510.55 1583.79 1491.88L1689.89 1240.95C1703.58 1208.58 1740.32 1190.67 1771.86 1200.86L2017.21 1280.08C2035.37 1285.94 2044.25 1301.54 2043.99 1318C2043.74 1334.47 2034.3 1351.75 2015.78 1360.8Z" stroke="url(#paint1_linear_2043_3)" stroke-width="2"/>
<path d="M194.174 725.918L193.33 725.383L194.174 725.918C207.405 705.037 228.412 697.425 246.984 700.974C265.55 704.522 281.792 719.243 285.47 743.328L334.673 1065.94C341.025 1107.66 314.762 1149.02 276.146 1158.36L276.381 1159.33L276.146 1158.36L-23.4519 1230.84C-45.7229 1236.23 -64.6361 1225.8 -74.7249 1208.77C-84.8217 1191.72 -86.0489 1168.09 -72.8072 1147.2L-73.6517 1146.67L-72.807 1147.2L194.174 725.918Z" stroke="url(#paint2_linear_2043_3)" stroke-width="2"/>
<path d="M-237.631 618.561L-339.819 -499.931C-344.932 -555.863 -317.643 -598.797 -279.155 -618.209C-240.673 -637.619 -190.897 -633.565 -150.875 -595.273L380.031 -87.1363C449.086 -21.0105 459.154 89.5952 402.629 159.856L-32.4586 700.699C-65.1913 741.385 -113.876 748.821 -155.715 732.107C-197.57 715.387 -232.534 674.5 -237.631 618.562L-238.627 618.653L-237.631 618.561Z" stroke="url(#paint3_linear_2043_3)" stroke-width="2"/>
<defs>
<linearGradient id="paint0_linear_2043_3" x1="1556.93" y1="436.083" x2="2443.64" y2="419.771" gradientUnits="userSpaceOnUse">
<stop stop-color="#2EFFE7"/>
<stop offset="1" stop-color="#47FF60"/>
</linearGradient>
<linearGradient id="paint1_linear_2043_3" x1="1812" y1="1197" x2="1812" y2="1550" gradientUnits="userSpaceOnUse">
<stop stop-color="#2EFFE7"/>
<stop offset="1" stop-color="#47FF60"/>
</linearGradient>
<linearGradient id="paint2_linear_2043_3" x1="237.625" y1="1187.2" x2="16.3648" y2="826.674" gradientUnits="userSpaceOnUse">
<stop stop-color="#2EFFE7"/>
<stop offset="1" stop-color="#47FF60"/>
</linearGradient>
<linearGradient id="paint3_linear_2043_3" x1="372.526" y1="263.452" x2="-517.494" y2="-76.0254" gradientUnits="userSpaceOnUse">
<stop stop-color="#2EFFE7"/>
<stop offset="1" stop-color="#47FF60"/>
</linearGradient>
</defs>
</svg>
