<?xml version="1.0" encoding="UTF-8"?>
<svg id="Warstwa_1" xmlns="http://www.w3.org/2000/svg" version="1.1" xmlns:xlink="http://www.w3.org/1999/xlink" viewBox="0 0 849 91">
  <!-- Generator: Adobe Illustrator 29.1.0, SVG Export Plug-In . SVG Version: 2.1.0 Build 142)  -->
  <defs>
    <style>
      .st0 {
        fill: url(#Gradient_bez_nazwy);
      }
    </style>
    <linearGradient id="Gradient_bez_nazwy" data-name="Gradient bez nazwy" x1="0" y1="3951.7" x2="240.9" y2="3951.7" gradientTransform="translate(0 -3908)" gradientUnits="userSpaceOnUse">
      <stop offset="0" stop-color="#2effe7"/>
      <stop offset="1" stop-color="#47ff60"/>
    </linearGradient>
  </defs>
  <g>
    <path d="M417.1,26.3l-1,6.4c-3.9-4.4-10-7.6-19.5-7.6-17,0-29.1,12.9-29.1,31.2s12.1,31.3,29.1,31.3,15.5-3,19.5-7.6l1,6.4h15V26.3h-15ZM399.9,73.1c-9.6,0-16.2-7.5-16.2-17s6.7-16.7,16.2-16.7,16.3,7.2,16.3,16.7-6.9,17-16.3,17Z"/>
    <path d="M485.3,37.9v-11.6h-46.3v13.4h28l-28.4,35v11.6h48.5v-13.4h-30.2s28.4-35,28.4-35Z"/>
    <path d="M537.6,0v33.5c-4-5-10.2-8.5-19.8-8.5-17,0-29.1,12.9-29.1,31.2s12.1,31.3,29.1,31.3,15.5-3,19.5-7.6l1,6.4h15V0h-15.8,0ZM521.2,73.1c-9.6,0-16.2-7.5-16.2-17s6.7-16.7,16.2-16.7,16.3,7.2,16.3,16.7-6.9,17-16.3,17Z"/>
    <path d="M609.1,26.3l-1,6.4c-3.9-4.4-10-7.6-19.5-7.6-17,0-29.1,12.9-29.1,31.2s12.1,31.3,29.1,31.3,15.5-3,19.5-7.6l1,6.4h15V26.3h-15ZM591.8,73.1c-9.6,0-16.2-7.5-16.2-17s6.7-16.7,16.2-16.7,16.3,7.2,16.3,16.7-6.9,17-16.3,17Z"/>
    <path d="M665.8,25c-8.9,0-15.4,4-18.5,8.2l-1-6.9h-14.5v60h16v-33.5c0-8.3,6.2-12.8,13.3-12.8s12.4,4.5,12.4,12.8v33.5h16v-37.7c0-14.4-9.8-23.6-23.7-23.6h0Z"/>
    <path d="M257.7,0h15.8v63.4L317.1,0h12.6v63.4L373.5,0h18.3l-60.1,86.2h-17.6V30.7l-38.7,55.5h-17.6V0h0Z"/>
    <path class="st0" d="M230.6,0H9.3C1,0-3.1,10.1,2.7,16l66.6,67c5.9,5.9,15.4,5.9,21.3,0l46.7-47c5.6-5.6,15.2-1.6,15.2,6.3v33.9c0,10,12,15,19,7.9L237.9,17.7c6.4-6.6,1.8-17.7-7.3-17.7h0Z"/>
    <path d="M710.9,61.4h4v21.5h10.8v3.5h-14.8v-25ZM728.6,68.2h3.8v18.2h-3.8v-18.2ZM730.5,66c-.7,0-1.2-.2-1.7-.7-.5-.4-.7-1-.7-1.7s.2-1.3.7-1.7,1-.7,1.7-.7,1.2.2,1.7.7c.5.4.7,1,.7,1.7s-.2,1.3-.7,1.7-1,.7-1.7.7ZM736.8,68.2h3.6v2.2c.5-.9,1.2-1.5,2-2,.9-.4,1.9-.7,3-.7s2.3.3,3.4.8c1,.5,1.8,1.3,2.3,2.2.6-1,1.4-1.8,2.3-2.3,1-.5,2.1-.8,3.3-.8s2.4.3,3.4.9,1.8,1.4,2.4,2.4c.6,1,.9,2.2.9,3.5v11.7h-3.8v-10.7c0-1.3-.4-2.4-1.1-3.2-.7-.8-1.6-1.2-2.8-1.2s-2.1.4-2.8,1.2-1.1,1.8-1.1,3.2v10.7h-3.8v-10.7c0-1.3-.4-2.4-1.1-3.2-.7-.8-1.6-1.2-2.8-1.2s-2.1.4-2.8,1.2-1.1,1.8-1.1,3.2v10.7h-3.8v-18.2l.4.3ZM767.6,68.2h3.8v18.2h-3.8v-18.2ZM769.5,66c-.7,0-1.2-.2-1.7-.7-.5-.4-.7-1-.7-1.7s.2-1.3.7-1.7,1-.7,1.7-.7,1.2.2,1.7.7c.5.4.7,1,.7,1.7s-.2,1.3-.7,1.7-1,.7-1.7.7ZM783.7,86.6c-1.9,0-3.4-.5-4.4-1.6-1.1-1.1-1.6-2.6-1.6-4.5v-8.8h-3.2v-3.5h.5c.9,0,1.5-.2,2-.7s.7-1.2.7-2v-1.4h3.8v4.2h4.1v3.5h-4.1v8.6c0,2,1,3,3,3s.8,0,1.2,0v3.3c-.8,0-1.5.2-2,.2v-.2ZM797.7,86.8c-1.8,0-3.4-.4-4.8-1.2-1.4-.9-2.5-2-3.3-3.5s-1.2-3.1-1.2-4.8.4-3.4,1.2-4.8,1.8-2.6,3.2-3.4,2.9-1.2,4.6-1.2,3.3.4,4.6,1.2c1.3.8,2.3,1.8,3,3.2.7,1.3,1,2.8,1,4.4s0,1.3-.2,1.8h-13.5c0,1.5.6,2.7,1.6,3.7,1,.9,2.2,1.4,3.7,1.4s2-.2,2.7-.7c.8-.5,1.4-1.1,1.9-1.9l3.1,1.5c-.6,1.3-1.5,2.4-3,3.3-1.4.8-3,1.2-4.8,1.2l.2-.2ZM802,75.4c0-1.3-.6-2.3-1.4-3.1-.9-.8-1.9-1.2-3.2-1.2s-2.3.4-3.2,1.2c-.9.8-1.5,1.8-1.7,3.2h9.6,0ZM818.1,86.8c-1.7,0-3.2-.4-4.6-1.2-1.4-.9-2.5-2-3.3-3.4-.8-1.5-1.2-3.1-1.2-4.8s.4-3.4,1.2-4.8c.8-1.5,1.9-2.6,3.3-3.4,1.4-.8,2.9-1.2,4.6-1.2s2.3.2,3.4.6c1,.4,1.9,1,2.5,1.8v-9.3h3.8v25.4h-3.6v-2.3c-.7.9-1.5,1.5-2.6,2s-2.2.7-3.5.7h0ZM818.5,83.3c1,0,2-.3,2.8-.8s1.5-1.2,2-2.1.7-1.9.7-3.1-.2-2.1-.7-3-1.1-1.6-2-2.1c-.8-.5-1.8-.8-2.8-.8s-2,.3-2.9.8c-.8.5-1.5,1.2-2,2.1s-.7,1.9-.7,3,.2,2.2.7,3.1,1.1,1.6,2,2.1c.8.5,1.8.8,2.9.8Z"/>
  </g>
  <g>
    <path d="M709.7,44.9l3.4-1.4c1.2,3.1,3.6,4.8,6.7,4.8s4.5-1.3,4.5-3.4-1-2.8-3-3.4l-4.8-1.5c-3.8-1.2-5.8-3.7-5.8-6.9s3.3-7.2,8.1-7.2,8,2.6,9.2,6.2l-3.3,1.4c-1-2.6-3.2-4.1-5.9-4.1s-4.2,1.3-4.2,3.4,1,2.9,3.1,3.6l4.4,1.4c4,1.2,6,3.5,6,6.8s-3.5,7.2-8.6,7.2-8.6-2.9-9.9-6.9Z"/>
    <path d="M731.9,44.4v-11.3h3.8v10.9c0,2.5,1.7,4.2,4,4.2s4-1.7,4-4.4v-10.8h3.8v18.2h-3.6v-2.2c-1,1.7-2.9,2.6-5.2,2.6-4.1,0-6.9-3-6.9-7.4Z"/>
    <path d="M752.1,33.1h3.6v2.3c1.3-1.7,3.5-2.7,6.1-2.7,5.2,0,9.1,4.1,9.1,9.5s-3.9,9.5-9.1,9.5-4.6-.9-5.9-2.5v8.9h-3.8v-25ZM767,42.3c0-3.4-2.4-6-5.5-6s-5.6,2.6-5.6,6,2.4,6,5.6,6,5.5-2.5,5.5-6Z"/>
    <path d="M774.7,33.1h3.6v2.3c1.3-1.7,3.5-2.7,6.1-2.7,5.2,0,9.1,4.1,9.1,9.5s-3.9,9.5-9.1,9.5-4.6-.9-5.9-2.5v8.9h-3.8v-25ZM789.6,42.3c0-3.4-2.4-6-5.5-6s-5.6,2.6-5.6,6,2.4,6,5.6,6,5.5-2.5,5.5-6Z"/>
    <path d="M796.5,42.3c0-5.5,4.2-9.5,9.5-9.5s9.5,4,9.5,9.5-4.3,9.5-9.5,9.5-9.5-4-9.5-9.5ZM811.6,42.3c0-3.4-2.4-6-5.5-6s-5.6,2.6-5.6,6,2.4,6,5.6,6,5.5-2.6,5.5-6Z"/>
    <path d="M819.3,33.1h3.6v2.4c.9-1.9,2.6-2.6,4.9-2.6h1.1v3.5h-1.6c-2.5,0-4.2,1.7-4.2,4.5v10.5h-3.8v-18.2Z"/>
    <path d="M833.7,45.4v-8.8h-3.2v-3.5h.5c1.7,0,2.7-1,2.7-2.8v-1.4h3.8v4.2h4.1v3.5h-4.1v8.6c0,1.9.8,3,3,3s.8,0,1.2-.1v3.3c-.6.1-1.5.2-2.1.2-3.8,0-6-2.3-6-6.2Z"/>
  </g>
</svg>